<svg width="126" height="32" viewBox="0 0 126 32" fill="none" xmlns="http://www.w3.org/2000/svg">
<g clip-path="url(#clip0_4741_2120)">
<path d="M29 29.5V3.5H36.6967V14.2275H52.3211V3.5H60V29.5H52.3211V18.7598H36.6967V29.5H29Z" fill="#E6E4DE"/>
<path d="M31 3.5H30V29.5H31V3.5Z" fill="#1E1E1E"/>
<path d="M36 3.5V29.5" stroke="#1E1E1E" stroke-width="0.5"/>
<path d="M37 14.5V18.5" stroke="#1E1E1E" stroke-width="0.2"/>
<path d="M34 3.5V29.5" stroke="#1E1E1E"/>
<path d="M28 11.7267H22.1983C22.0329 10.9396 21.7278 10.2424 21.2831 9.63498C20.8384 9.01901 20.2851 8.49715 19.6233 8.06939C18.9614 7.64163 18.2065 7.32082 17.3584 7.10694C16.5208 6.88451 15.6159 6.77329 14.6438 6.77329C12.9167 6.77329 11.3861 7.1326 10.0521 7.85124C8.718 8.56131 7.6735 9.60504 6.91856 10.9824C6.16362 12.3512 5.78615 14.0238 5.78615 16C5.78615 18.0105 6.16362 19.7044 6.91856 21.0817C7.68384 22.4506 8.72835 23.4857 10.0521 24.1873C11.3861 24.8802 12.9115 25.2267 14.6283 25.2267C15.5797 25.2267 16.4691 25.124 17.2964 24.9187C18.1341 24.7048 18.8838 24.3926 19.5457 23.9819C20.2179 23.5713 20.7815 23.0665 21.2366 22.4677C21.7019 21.8688 22.0225 21.1844 22.1983 20.4144L28 20.4401C27.7828 21.6892 27.3123 22.8612 26.5884 23.9563C25.8748 25.0513 24.9389 26.0181 23.7806 26.8565C22.6223 27.6863 21.2676 28.3365 19.7163 28.807C18.1651 29.269 16.4432 29.5 14.5507 29.5C11.7584 29.5 9.26611 28.9653 7.07368 27.8959C4.88126 26.8265 3.1542 25.2823 1.89252 23.2633C0.63084 21.2443 0 18.8232 0 16C0 13.1683 0.636011 10.7472 1.90803 8.73669C3.18006 6.71768 4.91228 5.17348 7.10471 4.10409C9.29714 3.0347 11.7791 2.5 14.5507 2.5C16.3191 2.5 17.9634 2.70532 19.4837 3.11597C21.0039 3.52662 22.3586 4.12975 23.5479 4.92538C24.7372 5.71245 25.7145 6.67918 26.4798 7.82557C27.2554 8.9634 27.7621 10.2638 28 11.7267Z" fill="#E6E4DE"/>
</g>
<path d="M77.0252 7.23544H75.2987C75.2494 6.9523 75.1586 6.70147 75.0263 6.48295C74.8939 6.26136 74.7293 6.07363 74.5323 5.91974C74.3353 5.76586 74.1107 5.65045 73.8583 5.57351C73.609 5.49349 73.3397 5.45348 73.0504 5.45348C72.5365 5.45348 72.081 5.58274 71.6839 5.84126C71.2869 6.09671 70.9761 6.47218 70.7514 6.96768C70.5268 7.46011 70.4144 8.06179 70.4144 8.77273C70.4144 9.49598 70.5268 10.1054 70.7514 10.6009C70.9792 11.0933 71.29 11.4657 71.6839 11.718C72.081 11.9673 72.5349 12.092 73.0458 12.092C73.329 12.092 73.5936 12.055 73.8398 11.9812C74.0891 11.9042 74.3123 11.7919 74.5092 11.6442C74.7093 11.4964 74.877 11.3149 75.0124 11.0994C75.1509 10.884 75.2463 10.6378 75.2987 10.3608L77.0252 10.37C76.9606 10.8194 76.8205 11.241 76.6051 11.6349C76.3928 12.0289 76.1142 12.3767 75.7695 12.6783C75.4248 12.9768 75.0217 13.2107 74.56 13.38C74.0984 13.5462 73.5859 13.6293 73.0227 13.6293C72.1918 13.6293 71.45 13.4369 70.7976 13.0522C70.1451 12.6675 69.6312 12.112 69.2557 11.3857C68.8802 10.6593 68.6925 9.78835 68.6925 8.77273C68.6925 7.75402 68.8817 6.88305 69.2603 6.1598C69.6388 5.43348 70.1544 4.87796 70.8068 4.49325C71.4593 4.10855 72.1979 3.91619 73.0227 3.91619C73.549 3.91619 74.0384 3.99006 74.4908 4.13778C74.9432 4.28551 75.3464 4.50249 75.7003 4.78871C76.0542 5.07185 76.3451 5.41963 76.5728 5.83203C76.8036 6.24136 76.9544 6.70916 77.0252 7.23544ZM81.6128 13.6385C80.9204 13.6385 80.3202 13.4862 79.8124 13.1815C79.3046 12.8768 78.9107 12.4505 78.6306 11.9027C78.3536 11.3549 78.2151 10.7147 78.2151 9.98224C78.2151 9.24976 78.3536 8.60807 78.6306 8.05717C78.9107 7.50627 79.3046 7.07848 79.8124 6.77379C80.3202 6.46911 80.9204 6.31676 81.6128 6.31676C82.3053 6.31676 82.9055 6.46911 83.4133 6.77379C83.9211 7.07848 84.3135 7.50627 84.5905 8.05717C84.8705 8.60807 85.0106 9.24976 85.0106 9.98224C85.0106 10.7147 84.8705 11.3549 84.5905 11.9027C84.3135 12.4505 83.9211 12.8768 83.4133 13.1815C82.9055 13.4862 82.3053 13.6385 81.6128 13.6385ZM81.6221 12.2997C81.9975 12.2997 82.3115 12.1966 82.5638 11.9904C82.8162 11.7811 83.0039 11.5011 83.127 11.1502C83.2532 10.7994 83.3163 10.4085 83.3163 9.97763C83.3163 9.54368 83.2532 9.15128 83.127 8.80043C83.0039 8.4465 82.8162 8.16489 82.5638 7.95561C82.3115 7.74633 81.9975 7.64169 81.6221 7.64169C81.2374 7.64169 80.9173 7.74633 80.6618 7.95561C80.4095 8.16489 80.2202 8.4465 80.094 8.80043C79.9709 9.15128 79.9094 9.54368 79.9094 9.97763C79.9094 10.4085 79.9709 10.7994 80.094 11.1502C80.2202 11.5011 80.4095 11.7811 80.6618 11.9904C80.9173 12.1966 81.2374 12.2997 81.6221 12.2997ZM88.1001 9.34517V13.5H86.429V6.40909H88.0263V7.61399H88.1094C88.2725 7.21697 88.5326 6.90151 88.8896 6.66761C89.2496 6.43371 89.6944 6.31676 90.2237 6.31676C90.7131 6.31676 91.1393 6.4214 91.5025 6.63068C91.8687 6.83996 92.1519 7.14311 92.3519 7.54013C92.555 7.93714 92.6551 8.4188 92.652 8.98508V13.5H90.9808V9.24361C90.9808 8.76965 90.8577 8.39879 90.6115 8.13104C90.3684 7.86328 90.0314 7.7294 89.6005 7.7294C89.3081 7.7294 89.0481 7.79403 88.8203 7.9233C88.5956 8.04948 88.4187 8.2326 88.2894 8.47266C88.1632 8.71271 88.1001 9.00355 88.1001 9.34517ZM97.8917 6.40909V7.7017H93.8153V6.40909H97.8917ZM94.8217 4.71023H96.4929V11.3672C96.4929 11.5919 96.5268 11.7642 96.5945 11.8842C96.6652 12.0012 96.7576 12.0812 96.8714 12.1243C96.9853 12.1674 97.1115 12.1889 97.25 12.1889C97.3546 12.1889 97.45 12.1812 97.5362 12.1658C97.6255 12.1504 97.6932 12.1366 97.7393 12.1243L98.021 13.4308C97.9317 13.4615 97.804 13.4954 97.6378 13.5323C97.4747 13.5692 97.2746 13.5908 97.0376 13.5969C96.6191 13.6093 96.2421 13.5462 95.9066 13.4077C95.5711 13.2661 95.3049 13.0476 95.108 12.7521C94.9141 12.4567 94.8187 12.0874 94.8217 11.6442V4.71023ZM99.2893 13.5V6.40909H100.91V7.59091H100.984C101.113 7.18158 101.334 6.86612 101.648 6.64453C101.965 6.41986 102.327 6.30753 102.733 6.30753C102.826 6.30753 102.929 6.31214 103.043 6.32138C103.159 6.32753 103.256 6.3383 103.333 6.35369V7.89098C103.263 7.86636 103.15 7.84482 102.996 7.82635C102.846 7.80481 102.699 7.79403 102.558 7.79403C102.253 7.79403 101.979 7.8602 101.736 7.99254C101.496 8.1218 101.307 8.30185 101.168 8.53267C101.03 8.76349 100.96 9.02971 100.96 9.33132V13.5H99.2893ZM106.357 13.6431C105.908 13.6431 105.503 13.5631 105.143 13.4031C104.786 13.2399 104.503 12.9999 104.294 12.6829C104.087 12.3659 103.984 11.975 103.984 11.5103C103.984 11.1102 104.058 10.7794 104.206 10.5178C104.354 10.2562 104.555 10.0469 104.811 9.88991C105.066 9.73295 105.354 9.61446 105.674 9.53445C105.997 9.45135 106.331 9.39134 106.676 9.3544C107.091 9.31132 107.428 9.27285 107.687 9.23899C107.945 9.20206 108.133 9.14666 108.25 9.0728C108.37 8.99586 108.43 8.87737 108.43 8.71733V8.68963C108.43 8.34186 108.327 8.07256 108.121 7.88175C107.914 7.69093 107.617 7.59553 107.23 7.59553C106.82 7.59553 106.496 7.68478 106.256 7.86328C106.019 8.04178 105.859 8.2526 105.775 8.49574L104.215 8.27415C104.338 7.84328 104.541 7.48319 104.824 7.19389C105.108 6.90151 105.454 6.683 105.863 6.53835C106.273 6.39062 106.725 6.31676 107.22 6.31676C107.562 6.31676 107.902 6.35677 108.241 6.43679C108.579 6.51681 108.889 6.64915 109.169 6.83381C109.449 7.01539 109.673 7.26314 109.843 7.57706C110.015 7.89098 110.101 8.28338 110.101 8.75426V13.5H108.495V12.5259H108.439C108.338 12.7229 108.195 12.9076 108.01 13.0799C107.828 13.2492 107.599 13.3861 107.322 13.4908C107.048 13.5923 106.726 13.6431 106.357 13.6431ZM106.791 12.4151C107.127 12.4151 107.417 12.349 107.664 12.2166C107.91 12.0812 108.099 11.9027 108.231 11.6811C108.367 11.4595 108.435 11.2179 108.435 10.9563V10.1207C108.382 10.1638 108.293 10.2038 108.167 10.2408C108.044 10.2777 107.905 10.31 107.751 10.3377C107.597 10.3654 107.445 10.39 107.294 10.4116C107.143 10.4331 107.013 10.4516 106.902 10.467C106.653 10.5008 106.429 10.5562 106.233 10.6332C106.036 10.7101 105.88 10.8178 105.766 10.9563C105.652 11.0917 105.595 11.2672 105.595 11.4826C105.595 11.7904 105.708 12.0227 105.932 12.1797C106.157 12.3366 106.443 12.4151 106.791 12.4151ZM117.386 8.28338L115.862 8.44957C115.819 8.29569 115.744 8.15104 115.636 8.01562C115.532 7.88021 115.39 7.77095 115.212 7.68785C115.033 7.60476 114.815 7.56321 114.556 7.56321C114.208 7.56321 113.916 7.63861 113.679 7.78942C113.445 7.94022 113.33 8.13565 113.333 8.37571C113.33 8.58191 113.405 8.74964 113.559 8.87891C113.716 9.00817 113.974 9.11435 114.334 9.19744L115.544 9.45597C116.215 9.60062 116.713 9.8299 117.04 10.1438C117.369 10.4577 117.535 10.8686 117.538 11.3764C117.535 11.8227 117.404 12.2166 117.146 12.5582C116.89 12.8968 116.535 13.1615 116.079 13.3523C115.624 13.5431 115.101 13.6385 114.51 13.6385C113.642 13.6385 112.943 13.4569 112.414 13.0938C111.885 12.7275 111.569 12.2182 111.468 11.5657L113.097 11.4087C113.171 11.7288 113.328 11.9704 113.568 12.1335C113.808 12.2966 114.121 12.3782 114.505 12.3782C114.902 12.3782 115.221 12.2966 115.461 12.1335C115.704 11.9704 115.826 11.7688 115.826 11.5288C115.826 11.3256 115.747 11.1579 115.59 11.0256C115.436 10.8932 115.196 10.7917 114.87 10.7209L113.66 10.467C112.98 10.3254 112.477 10.0869 112.151 9.75142C111.825 9.41288 111.663 8.98509 111.666 8.46804C111.663 8.03101 111.782 7.65246 112.022 7.33239C112.265 7.00923 112.602 6.75994 113.033 6.58452C113.467 6.40601 113.967 6.31676 114.533 6.31676C115.364 6.31676 116.018 6.49373 116.495 6.84766C116.975 7.20159 117.272 7.68016 117.386 8.28338ZM122.457 6.40909V7.7017H118.381V6.40909H122.457ZM119.387 4.71023H121.058V11.3672C121.058 11.5919 121.092 11.7642 121.16 11.8842C121.231 12.0012 121.323 12.0812 121.437 12.1243C121.551 12.1674 121.677 12.1889 121.815 12.1889C121.92 12.1889 122.015 12.1812 122.102 12.1658C122.191 12.1504 122.259 12.1366 122.305 12.1243L122.586 13.4308C122.497 13.4615 122.369 13.4954 122.203 13.5323C122.04 13.5692 121.84 13.5908 121.603 13.5969C121.185 13.6093 120.807 13.5462 120.472 13.4077C120.137 13.2661 119.87 13.0476 119.673 12.7521C119.479 12.4567 119.384 12.0874 119.387 11.6442V4.71023Z" fill="#E6E4DE"/>
<path d="M68.9325 28.5V19.0455H70.6452V23.0479H75.0263V19.0455H76.7436V28.5H75.0263V24.4837H70.6452V28.5H68.9325ZM80.573 28.6431C80.1236 28.6431 79.7189 28.5631 79.3588 28.4031C79.0018 28.2399 78.7187 27.9999 78.5094 27.6829C78.3032 27.3659 78.2001 26.975 78.2001 26.5103C78.2001 26.1102 78.274 25.7794 78.4217 25.5178C78.5694 25.2562 78.771 25.0469 79.0265 24.8899C79.2819 24.733 79.5697 24.6145 79.8897 24.5344C80.2129 24.4513 80.5468 24.3913 80.8915 24.3544C81.307 24.3113 81.644 24.2728 81.9025 24.239C82.161 24.2021 82.3488 24.1467 82.4657 24.0728C82.5858 23.9959 82.6458 23.8774 82.6458 23.7173V23.6896C82.6458 23.3419 82.5427 23.0726 82.3365 22.8817C82.1303 22.6909 81.8333 22.5955 81.4455 22.5955C81.0362 22.5955 80.7115 22.6848 80.4714 22.8633C80.2344 23.0418 80.0744 23.2526 79.9913 23.4957L78.4309 23.2741C78.554 22.8433 78.7572 22.4832 79.0403 22.1939C79.3234 21.9015 79.6697 21.683 80.079 21.5384C80.4883 21.3906 80.9408 21.3168 81.4363 21.3168C81.7779 21.3168 82.118 21.3568 82.4565 21.4368C82.795 21.5168 83.1043 21.6491 83.3844 21.8338C83.6645 22.0154 83.8891 22.2631 84.0584 22.5771C84.2308 22.891 84.3169 23.2834 84.3169 23.7543V28.5H82.7104V27.5259H82.655C82.5534 27.7229 82.4103 27.9076 82.2257 28.0799C82.0441 28.2492 81.8148 28.3861 81.5378 28.4908C81.2639 28.5923 80.9423 28.6431 80.573 28.6431ZM81.0069 27.4151C81.3424 27.4151 81.6332 27.349 81.8794 27.2166C82.1257 27.0812 82.3149 26.9027 82.4473 26.6811C82.5827 26.4595 82.6504 26.2179 82.6504 25.9563V25.1207C82.5981 25.1638 82.5088 25.2038 82.3826 25.2408C82.2595 25.2777 82.121 25.31 81.9672 25.3377C81.8133 25.3654 81.6609 25.39 81.5101 25.4116C81.3593 25.4331 81.2285 25.4516 81.1177 25.467C80.8684 25.5008 80.6453 25.5562 80.4483 25.6332C80.2514 25.7101 80.0959 25.8178 79.9821 25.9563C79.8682 26.0917 79.8113 26.2672 79.8113 26.4826C79.8113 26.7904 79.9236 27.0227 80.1483 27.1797C80.3729 27.3366 80.6592 27.4151 81.0069 27.4151ZM85.9973 28.5V21.4091H87.6177V22.5909H87.6916C87.8208 22.1816 88.0424 21.8661 88.3564 21.6445C88.6734 21.4199 89.035 21.3075 89.4412 21.3075C89.5336 21.3075 89.6367 21.3121 89.7505 21.3214C89.8675 21.3275 89.9644 21.3383 90.0414 21.3537V22.891C89.9706 22.8664 89.8583 22.8448 89.7044 22.8263C89.5536 22.8048 89.4074 22.794 89.2658 22.794C88.9611 22.794 88.6872 22.8602 88.4441 22.9925C88.204 23.1218 88.0147 23.3018 87.8762 23.5327C87.7377 23.7635 87.6685 24.0297 87.6685 24.3313V28.5H85.9973ZM91.1516 28.5V21.4091H92.7489V22.614H92.832C92.9798 22.2077 93.2244 21.8907 93.5661 21.663C93.9077 21.4322 94.3155 21.3168 94.7894 21.3168C95.2695 21.3168 95.6742 21.4337 96.0036 21.6676C96.3359 21.8984 96.5698 22.2139 96.7053 22.614H96.7791C96.9361 22.2201 97.2008 21.9061 97.5732 21.6722C97.9486 21.4353 98.3933 21.3168 98.9073 21.3168C99.5598 21.3168 100.092 21.523 100.505 21.9354C100.917 22.3478 101.123 22.9495 101.123 23.7404V28.5H99.4474V23.9989C99.4474 23.5588 99.3305 23.2372 99.0966 23.0341C98.8627 22.8279 98.5765 22.7248 98.2379 22.7248C97.8348 22.7248 97.5193 22.851 97.2915 23.1033C97.0669 23.3526 96.9545 23.6773 96.9545 24.0774V28.5H95.3157V23.9297C95.3157 23.5634 95.2049 23.2711 94.9833 23.0526C94.7648 22.834 94.4786 22.7248 94.1246 22.7248C93.8846 22.7248 93.6661 22.7863 93.4691 22.9094C93.2721 23.0295 93.1152 23.2003 92.9982 23.4219C92.8813 23.6404 92.8228 23.8958 92.8228 24.1882V28.5H91.1516ZM105.912 28.6385C105.219 28.6385 104.619 28.4862 104.111 28.1815C103.603 27.8768 103.209 27.4505 102.929 26.9027C102.652 26.3549 102.514 25.7147 102.514 24.9822C102.514 24.2498 102.652 23.6081 102.929 23.0572C103.209 22.5063 103.603 22.0785 104.111 21.7738C104.619 21.4691 105.219 21.3168 105.912 21.3168C106.604 21.3168 107.204 21.4691 107.712 21.7738C108.22 22.0785 108.612 22.5063 108.889 23.0572C109.169 23.6081 109.309 24.2498 109.309 24.9822C109.309 25.7147 109.169 26.3549 108.889 26.9027C108.612 27.4505 108.22 27.8768 107.712 28.1815C107.204 28.4862 106.604 28.6385 105.912 28.6385ZM105.921 27.2997C106.296 27.2997 106.61 27.1966 106.863 26.9904C107.115 26.7811 107.303 26.5011 107.426 26.1502C107.552 25.7994 107.615 25.4085 107.615 24.9776C107.615 24.5437 107.552 24.1513 107.426 23.8004C107.303 23.4465 107.115 23.1649 106.863 22.9556C106.61 22.7463 106.296 22.6417 105.921 22.6417C105.536 22.6417 105.216 22.7463 104.961 22.9556C104.708 23.1649 104.519 23.4465 104.393 23.8004C104.27 24.1513 104.208 24.5437 104.208 24.9776C104.208 25.4085 104.27 25.7994 104.393 26.1502C104.519 26.5011 104.708 26.7811 104.961 26.9904C105.216 27.1966 105.536 27.2997 105.921 27.2997ZM112.399 24.3452V28.5H110.728V21.4091H112.325V22.614H112.408C112.571 22.217 112.831 21.9015 113.188 21.6676C113.548 21.4337 113.993 21.3168 114.523 21.3168C115.012 21.3168 115.438 21.4214 115.801 21.6307C116.168 21.84 116.451 22.1431 116.651 22.5401C116.854 22.9371 116.954 23.4188 116.951 23.9851V28.5H115.28V24.2436C115.28 23.7696 115.157 23.3988 114.91 23.131C114.667 22.8633 114.33 22.7294 113.899 22.7294C113.607 22.7294 113.347 22.794 113.119 22.9233C112.894 23.0495 112.718 23.2326 112.588 23.4727C112.462 23.7127 112.399 24.0036 112.399 24.3452ZM119.434 31.1591C119.207 31.1591 118.996 31.1406 118.802 31.1037C118.611 31.0698 118.459 31.0298 118.345 30.9837L118.733 29.6818C118.976 29.7526 119.193 29.7865 119.384 29.7834C119.575 29.7803 119.742 29.7203 119.887 29.6033C120.035 29.4895 120.159 29.2987 120.261 29.0309L120.404 28.6477L117.833 21.4091H119.605L121.24 26.7642H121.313L122.952 21.4091H124.73L121.89 29.3587C121.758 29.7341 121.583 30.0558 121.364 30.3235C121.146 30.5943 120.878 30.8005 120.561 30.9421C120.247 31.0868 119.872 31.1591 119.434 31.1591Z" fill="#E6E4DE"/>
<defs>
<clipPath id="clip0_4741_2120">
<rect width="60" height="27" fill="white" transform="translate(0 2.5)"/>
</clipPath>
</defs>
</svg>
