<svg width="165" height="28" viewBox="0 0 165 28" fill="none" xmlns="http://www.w3.org/2000/svg">
<mask id="path-1-inside-1_4741_2024" fill="white">
<path d="M0 0H165V28H0V0Z"/>
</mask>
<path d="M165 27H0V29H165V27Z" fill="#E6E4DE" mask="url(#path-1-inside-1_4741_2024)"/>
<path d="M5.39489 21L0.46875 3.54545H3.86932L7.0142 16.3722H7.17614L10.5341 3.54545H13.6278L16.9943 16.3807H17.1477L20.2926 3.54545H23.6932L18.767 21H15.6477L12.1534 8.75284H12.017L8.5142 21H5.39489ZM26.0065 21H22.6315L28.7764 3.54545H32.6798L38.8332 21H35.4582L30.7963 7.125H30.6599L26.0065 21ZM26.1173 14.1562H35.3218V16.696H26.1173V14.1562ZM37.7758 6.19602V3.54545H51.7019V6.19602H46.307V21H43.1707V6.19602H37.7758ZM68.0735 9.43466H64.886C64.7951 8.91193 64.6275 8.44886 64.3832 8.04545C64.1388 7.63636 63.8349 7.28977 63.4712 7.00568C63.1076 6.72159 62.6928 6.50852 62.2269 6.36648C61.7667 6.21875 61.2695 6.14489 60.7354 6.14489C59.7866 6.14489 58.9457 6.38352 58.2127 6.86079C57.4797 7.33239 56.9059 8.02557 56.4911 8.94034C56.0763 9.84943 55.869 10.9602 55.869 12.2727C55.869 13.608 56.0763 14.733 56.4911 15.6477C56.9116 16.5568 57.4854 17.2443 58.2127 17.7102C58.9457 18.1705 59.7837 18.4006 60.7269 18.4006C61.2496 18.4006 61.7383 18.3324 62.1928 18.196C62.653 18.054 63.065 17.8466 63.4286 17.5739C63.7979 17.3011 64.1076 16.9659 64.3576 16.5682C64.6133 16.1705 64.7894 15.7159 64.886 15.2045L68.0735 15.2216C67.9542 16.0511 67.6957 16.8295 67.2979 17.5568C66.9059 18.2841 66.3917 18.9261 65.7553 19.483C65.119 20.0341 64.3746 20.4659 63.5224 20.7784C62.6701 21.0852 61.7241 21.2386 60.6843 21.2386C59.1502 21.2386 57.7809 20.8835 56.5763 20.1733C55.3718 19.4631 54.4229 18.4375 53.7297 17.0966C53.0366 15.7557 52.69 14.1477 52.69 12.2727C52.69 10.392 53.0394 8.78409 53.7383 7.44886C54.4371 6.10795 55.3888 5.08239 56.5934 4.37216C57.7979 3.66193 59.1616 3.30682 60.6843 3.30682C61.6559 3.30682 62.5593 3.44318 63.3945 3.71591C64.2297 3.98864 64.9741 4.3892 65.6275 4.91761C66.2809 5.44034 66.8178 6.08239 67.2383 6.84375C67.6644 7.59943 67.9428 8.46307 68.0735 9.43466ZM70.4891 21V3.54545H73.651V10.9347H81.7391V3.54545H84.9095V21H81.7391V13.5852H73.651V21H70.4891ZM95.6768 3.54545L100.219 17.2841H100.398L104.933 3.54545H108.41L102.256 21H98.353L92.2081 3.54545H95.6768ZM113.391 3.54545V21H110.229V3.54545H113.391ZM122.249 21H116.335V3.54545H122.369C124.102 3.54545 125.59 3.89489 126.835 4.59375C128.085 5.28693 129.045 6.28409 129.715 7.58523C130.386 8.88636 130.721 10.4432 130.721 12.2557C130.721 14.0739 130.383 15.6364 129.707 16.9432C129.036 18.25 128.068 19.2528 126.801 19.9517C125.539 20.6506 124.022 21 122.249 21ZM119.497 18.2642H122.096C123.312 18.2642 124.326 18.0426 125.139 17.5994C125.951 17.1506 126.562 16.483 126.971 15.5966C127.38 14.7045 127.585 13.5909 127.585 12.2557C127.585 10.9205 127.38 9.8125 126.971 8.93182C126.562 8.04545 125.957 7.38352 125.156 6.94602C124.36 6.50284 123.372 6.28125 122.19 6.28125H119.497V18.2642ZM133.245 21V3.54545H144.598V6.19602H136.407V10.9347H144.01V13.5852H136.407V18.3494H144.666V21H133.245ZM162.94 12.2727C162.94 14.1534 162.588 15.7642 161.883 17.1051C161.184 18.4403 160.23 19.4631 159.02 20.1733C157.815 20.8835 156.449 21.2386 154.92 21.2386C153.392 21.2386 152.022 20.8835 150.812 20.1733C149.608 19.4574 148.653 18.4318 147.949 17.0966C147.25 15.7557 146.9 14.1477 146.9 12.2727C146.9 10.392 147.25 8.78409 147.949 7.44886C148.653 6.10795 149.608 5.08239 150.812 4.37216C152.022 3.66193 153.392 3.30682 154.92 3.30682C156.449 3.30682 157.815 3.66193 159.02 4.37216C160.23 5.08239 161.184 6.10795 161.883 7.44886C162.588 8.78409 162.94 10.392 162.94 12.2727ZM159.761 12.2727C159.761 10.9489 159.554 9.83239 159.139 8.92329C158.73 8.00852 158.162 7.31818 157.434 6.85227C156.707 6.38068 155.869 6.14489 154.92 6.14489C153.971 6.14489 153.133 6.38068 152.406 6.85227C151.679 7.31818 151.108 8.00852 150.693 8.92329C150.284 9.83239 150.079 10.9489 150.079 12.2727C150.079 13.5966 150.284 14.7159 150.693 15.6307C151.108 16.5398 151.679 17.2301 152.406 17.7017C153.133 18.1676 153.971 18.4006 154.92 18.4006C155.869 18.4006 156.707 18.1676 157.434 17.7017C158.162 17.2301 158.73 16.5398 159.139 15.6307C159.554 14.7159 159.761 13.5966 159.761 12.2727Z" fill="#E6E4DE"/>
</svg>
