<svg width="655" height="294" viewBox="0 0 655 294" fill="none" xmlns="http://www.w3.org/2000/svg">
<g clip-path="url(#clip0_4741_2035)">
<path d="M316.583 294V10.8889H400.606V127.699H571.172V10.8889H655V294H571.172V177.051H400.606V294H316.583Z" fill="#121212"/>
<path d="M393 10.8889V294" stroke="#E6E4DE" stroke-width="2"/>
<path d="M401 128L401 177" stroke="#E6E4DE"/>
<path d="M305.667 100.469H242.331C240.526 91.8983 237.195 84.306 232.34 77.692C227.486 70.9848 221.446 65.3023 214.221 60.6445C206.995 55.9866 198.754 52.4934 189.496 50.1645C180.352 47.7424 170.474 46.5314 159.861 46.5314C141.007 46.5314 124.298 50.4439 109.735 58.2691C95.1715 66.0009 83.769 77.366 75.5276 92.364C67.2862 107.269 63.1655 125.481 63.1655 147C63.1655 168.892 67.2862 187.337 75.5276 202.334C83.8819 217.24 95.2845 228.511 109.735 236.151C124.298 243.696 140.951 247.469 159.692 247.469C170.078 247.469 179.788 246.35 188.819 244.115C197.964 241.786 206.148 238.386 213.374 233.914C220.712 229.443 226.865 223.946 231.833 217.426C236.912 210.905 240.412 203.452 242.331 195.068L305.667 195.348C303.296 208.949 298.159 221.711 290.257 233.635C282.467 245.559 272.25 256.086 259.605 265.215C246.96 274.251 232.171 281.331 215.236 286.454C198.302 291.485 179.505 294 158.845 294C128.363 294 101.155 288.178 77.221 276.533C53.2871 264.889 34.4333 248.074 20.66 226.089C6.88667 204.105 0 177.742 0 147C0 116.166 6.94312 89.8023 20.8293 67.9106C34.7157 45.9258 53.6257 29.1112 77.5597 17.4668C101.494 5.82224 128.589 0 158.845 0C178.15 0 196.1 2.23574 212.697 6.70722C229.293 11.1788 244.081 17.7462 257.065 26.4097C270.048 34.98 280.717 45.5066 289.071 57.9895C297.538 70.3792 303.07 84.5389 305.667 100.469Z" fill="#121212"/>
</g>
<defs>
<clipPath id="clip0_4741_2035">
<rect width="655" height="294" fill="white"/>
</clipPath>
</defs>
</svg>
