<?xml version="1.0" encoding="UTF-8"?>
<svg xmlns="http://www.w3.org/2000/svg" xmlns:xlink="http://www.w3.org/1999/xlink" width="32px" height="32px" viewBox="0 0 32 32" version="1.1">
<g id="surface1">
<path style=" stroke:none;fill-rule:nonzero;fill:rgb(97.647059%,28.235294%,40.392157%);fill-opacity:1;" d="M 32 16 C 32 24.835938 24.835938 32 16 32 C 7.164062 32 0 24.835938 0 16 C 0 7.164062 7.164062 0 16 0 C 24.835938 0 32 7.164062 32 16 Z M 32 16 "/>
<path style="fill-rule:nonzero;fill:rgb(94.117647%,94.117647%,94.117647%);fill-opacity:1;stroke-width:0.5;stroke-linecap:butt;stroke-linejoin:miter;stroke:rgb(100%,100%,100%);stroke-opacity:1;stroke-miterlimit:10;" d="M 50.654297 18.720703 C 55.480957 27.092285 52.617188 37.792969 44.25293 42.626953 L 28.227539 51.877441 L 28.220215 51.862793 C 28.081055 51.950684 27.941895 52.045898 27.79541 52.126465 C 24.689941 53.920898 20.712891 52.858887 18.918457 49.746094 C 17.124023 46.640625 18.186035 42.663574 21.298828 40.869141 C 21.445312 40.78125 21.584473 40.715332 21.738281 40.634766 L 21.730957 40.620117 L 23.459473 39.616699 C 24.418945 39.067383 24.748535 37.844238 24.191895 36.884766 C 23.642578 35.932617 22.419434 35.603027 21.459961 36.152344 L 17.563477 38.408203 C 13.498535 40.751953 8.305664 39.360352 5.95459 35.29541 L 5.456543 34.431152 C 3.112793 30.358887 4.504395 25.166016 8.562012 22.814941 L 26.748047 12.319336 C 35.119629 7.485352 45.820312 10.356445 50.654297 18.720703 Z M 50.654297 18.720703 " transform="matrix(0.533333,0,0,0.533333,0,0)"/>
<path style=" stroke:none;fill-rule:nonzero;fill:rgb(94.901961%,33.72549%,18.431373%);fill-opacity:1;" d="M 10.359375 13.136719 C 11.097656 14.410156 10.660156 16.042969 9.382812 16.777344 C 8.109375 17.515625 6.476562 17.078125 5.742188 15.800781 C 5.003906 14.527344 5.441406 12.894531 6.71875 12.160156 C 7.992188 11.421875 9.625 11.859375 10.359375 13.136719 Z M 10.359375 13.136719 "/>
<path style=" stroke:none;fill-rule:nonzero;fill:rgb(94.901961%,33.72549%,18.431373%);fill-opacity:1;" d="M 11.621094 14.253906 C 11.917969 14.765625 11.742188 15.417969 11.230469 15.710938 C 10.722656 16.007812 10.070312 15.832031 9.773438 15.320312 C 9.480469 14.8125 9.65625 14.160156 10.164062 13.863281 C 10.675781 13.570312 11.328125 13.746094 11.621094 14.253906 Z M 11.621094 14.253906 "/>
<path style=" stroke:none;fill-rule:nonzero;fill:rgb(94.901961%,33.72549%,18.431373%);fill-opacity:1;" d="M 7.9375 18.539062 C 8.15625 18.921875 8.027344 19.410156 7.644531 19.628906 C 7.261719 19.851562 6.773438 19.71875 6.550781 19.335938 C 6.332031 18.957031 6.460938 18.464844 6.84375 18.246094 C 7.226562 18.023438 7.714844 18.15625 7.9375 18.539062 Z M 7.9375 18.539062 "/>
<path style=" stroke:none;fill-rule:nonzero;fill:rgb(94.901961%,33.72549%,18.431373%);fill-opacity:1;" d="M 12.492188 16.832031 C 12.640625 17.085938 12.554688 17.410156 12.296875 17.558594 C 12.042969 17.707031 11.71875 17.617188 11.570312 17.363281 C 11.421875 17.109375 11.511719 16.78125 11.765625 16.636719 C 12.019531 16.488281 12.347656 16.574219 12.492188 16.832031 Z M 12.492188 16.832031 "/>
<path style=" stroke:none;fill-rule:nonzero;fill:rgb(99.215686%,82.745098%,1.176471%);fill-opacity:1;" d="M 17.09375 9.863281 C 17.828125 11.140625 17.394531 12.769531 16.117188 13.507812 C 14.84375 14.242188 13.210938 13.804688 12.476562 12.53125 C 11.738281 11.253906 12.175781 9.625 13.449219 8.886719 C 14.726562 8.152344 16.355469 8.589844 17.09375 9.863281 Z M 17.09375 9.863281 "/>
<path style=" stroke:none;fill-rule:nonzero;fill:rgb(99.215686%,82.745098%,1.176471%);fill-opacity:1;" d="M 17.554688 9.597656 C 17.851562 10.109375 17.675781 10.761719 17.164062 11.054688 C 16.65625 11.347656 16.003906 11.175781 15.707031 10.664062 C 15.414062 10.152344 15.589844 9.5 16.097656 9.207031 C 16.609375 8.914062 17.261719 9.085938 17.554688 9.597656 Z M 17.554688 9.597656 "/>
<path style=" stroke:none;fill-rule:nonzero;fill:rgb(9.411765%,56.862745%,100%);fill-opacity:1;" d="M 24.832031 9.398438 C 25.640625 10.800781 25.160156 12.597656 23.757812 13.40625 C 22.355469 14.214844 20.5625 13.734375 19.75 12.332031 C 18.941406 10.929688 19.421875 9.136719 20.824219 8.324219 C 22.226562 7.515625 24.019531 7.996094 24.832031 9.398438 Z M 24.832031 9.398438 "/>
<path style=" stroke:none;fill-rule:nonzero;fill:rgb(9.411765%,56.862745%,100%);fill-opacity:1;" d="M 21.863281 11.726562 C 22.378906 12.621094 22.074219 13.761719 21.179688 14.277344 C 20.289062 14.792969 19.148438 14.488281 18.632812 13.59375 C 18.117188 12.703125 18.421875 11.558594 19.316406 11.046875 C 20.207031 10.53125 21.347656 10.835938 21.863281 11.726562 Z M 21.863281 11.726562 "/>
<path style=" stroke:none;fill-rule:nonzero;fill:rgb(9.411765%,56.862745%,100%);fill-opacity:1;" d="M 25.835938 12.207031 C 26.277344 12.972656 26.015625 13.949219 25.25 14.390625 C 24.484375 14.835938 23.507812 14.570312 23.066406 13.808594 C 22.621094 13.042969 22.886719 12.0625 23.652344 11.621094 C 24.414062 11.179688 25.394531 11.441406 25.835938 12.207031 Z M 25.835938 12.207031 "/>
<path style=" stroke:none;fill-rule:nonzero;fill:rgb(41.960784%,43.529412%,87.058824%);fill-opacity:1;" d="M 21.894531 18.179688 C 22.628906 19.453125 22.191406 21.085938 20.917969 21.820312 C 19.640625 22.558594 18.011719 22.121094 17.273438 20.84375 C 16.539062 19.570312 16.976562 17.9375 18.25 17.203125 C 19.527344 16.464844 21.15625 16.902344 21.894531 18.179688 Z M 21.894531 18.179688 "/>
<path style=" stroke:none;fill-rule:nonzero;fill:rgb(41.960784%,43.529412%,87.058824%);fill-opacity:1;" d="M 17.398438 18.925781 C 17.691406 19.4375 17.519531 20.089844 17.007812 20.382812 C 16.496094 20.675781 15.84375 20.503906 15.550781 19.992188 C 15.257812 19.480469 15.429688 18.828125 15.941406 18.535156 C 16.453125 18.242188 17.105469 18.414062 17.398438 18.925781 Z M 17.398438 18.925781 "/>
<path style=" stroke:none;fill-rule:nonzero;fill:rgb(41.960784%,43.529412%,87.058824%);fill-opacity:1;" d="M 17.121094 16.3125 C 17.34375 16.695312 17.210938 17.1875 16.828125 17.40625 C 16.445312 17.628906 15.957031 17.496094 15.738281 17.113281 C 15.515625 16.730469 15.648438 16.242188 16.03125 16.019531 C 16.410156 15.800781 16.902344 15.929688 17.121094 16.3125 Z M 17.121094 16.3125 "/>
<path style=" stroke:none;fill-rule:nonzero;fill:rgb(41.960784%,43.529412%,87.058824%);fill-opacity:1;" d="M 22.375 22.210938 C 22.523438 22.464844 22.433594 22.792969 22.179688 22.941406 C 21.925781 23.085938 21.597656 23 21.449219 22.746094 C 21.304688 22.488281 21.390625 22.164062 21.644531 22.015625 C 21.902344 21.867188 22.226562 21.957031 22.375 22.210938 Z M 22.375 22.210938 "/>
<path style=" stroke:none;fill-rule:nonzero;fill:rgb(79.607843%,79.607843%,79.607843%);fill-opacity:1;" d="M 15.171875 23.597656 C 15.832031 24.746094 15.441406 26.214844 14.292969 26.878906 C 13.144531 27.539062 11.675781 27.148438 11.011719 26 C 10.351562 24.851562 10.742188 23.382812 11.890625 22.722656 C 13.039062 22.058594 14.507812 22.453125 15.171875 23.597656 Z M 15.171875 23.597656 "/>
<path style=" stroke:none;fill-rule:nonzero;fill:rgb(9.411765%,56.862745%,100%);fill-opacity:1;" d="M 14.707031 23.867188 C 15.222656 24.757812 14.917969 25.902344 14.023438 26.414062 C 13.132812 26.929688 11.992188 26.625 11.476562 25.734375 C 10.960938 24.839844 11.265625 23.699219 12.160156 23.183594 C 13.050781 22.667969 14.191406 22.972656 14.707031 23.867188 Z M 14.707031 23.867188 "/>
<path style=" stroke:none;fill-rule:nonzero;fill:rgb(99.215686%,82.745098%,1.176471%);fill-opacity:1;" d="M 20.53125 9.417969 C 20.753906 9.800781 20.621094 10.289062 20.238281 10.511719 C 19.855469 10.734375 19.367188 10.601562 19.144531 10.21875 C 18.925781 9.835938 19.054688 9.347656 19.4375 9.125 C 19.820312 8.90625 20.308594 9.035156 20.53125 9.417969 Z M 20.53125 9.417969 "/>
<path style=" stroke:none;fill-rule:nonzero;fill:rgb(68.235294%,68.235294%,68.235294%);fill-opacity:1;" d="M 27.78125 18.742188 C 27.78125 19.414062 27.640625 20.074219 27.367188 20.6875 L 24.648438 20.6875 C 24.585938 20.667969 24.527344 20.640625 24.472656 20.609375 C 23.859375 20.324219 23.46875 19.714844 23.464844 19.039062 C 23.464844 18.820312 23.507812 18.597656 23.59375 18.394531 C 23.675781 18.195312 23.792969 18.007812 23.941406 17.851562 C 24.007812 17.78125 24.078125 17.714844 24.15625 17.660156 C 24.257812 17.574219 24.378906 17.515625 24.488281 17.433594 C 24.597656 17.359375 24.703125 17.273438 24.792969 17.179688 C 24.800781 17.171875 24.804688 17.164062 24.8125 17.15625 C 24.96875 17.003906 25.097656 16.828125 25.199219 16.632812 C 25.304688 16.441406 25.382812 16.234375 25.425781 16.019531 C 25.460938 15.867188 25.476562 15.707031 25.476562 15.546875 C 25.476562 15.144531 25.371094 14.75 25.171875 14.398438 C 26.765625 15.261719 27.765625 16.925781 27.78125 18.742188 Z M 27.78125 18.742188 "/>
<path style=" stroke:none;fill-rule:nonzero;fill:rgb(79.607843%,79.607843%,79.607843%);fill-opacity:1;" d="M 27.117188 18.851562 C 27.117188 19.460938 26.976562 20.0625 26.710938 20.609375 L 24.472656 20.609375 C 23.859375 20.324219 23.46875 19.714844 23.464844 19.039062 C 23.464844 18.820312 23.507812 18.597656 23.59375 18.394531 C 23.675781 18.195312 23.792969 18.007812 23.941406 17.851562 C 24.007812 17.78125 24.078125 17.714844 24.15625 17.660156 C 24.257812 17.574219 24.378906 17.515625 24.488281 17.433594 C 24.597656 17.359375 24.703125 17.273438 24.792969 17.179688 C 24.800781 17.171875 24.804688 17.164062 24.8125 17.15625 C 24.96875 17.003906 25.097656 16.828125 25.199219 16.632812 C 25.304688 16.441406 25.382812 16.234375 25.425781 16.019531 C 25.460938 15.867188 25.476562 15.707031 25.476562 15.546875 C 26.496094 16.34375 27.101562 17.558594 27.117188 18.851562 Z M 27.117188 18.851562 "/>
<path style=" stroke:none;fill-rule:nonzero;fill:rgb(30.980392%,33.333333%,39.215686%);fill-opacity:1;" d="M 24 21.367188 L 27.734375 21.367188 L 27.734375 30.132812 C 27.734375 31.164062 26.898438 32 25.867188 32 C 24.835938 32 24 31.164062 24 30.132812 Z M 24 21.367188 "/>
<path style=" stroke:none;fill-rule:nonzero;fill:rgb(100%,100%,100%);fill-opacity:1;" d="M 27.734375 21.675781 L 24 21.675781 C 23.707031 21.675781 23.464844 21.4375 23.464844 21.140625 C 23.464844 20.847656 23.707031 20.609375 24 20.609375 L 27.734375 20.609375 C 28.027344 20.609375 28.265625 20.847656 28.265625 21.140625 C 28.265625 21.4375 28.027344 21.675781 27.734375 21.675781 Z M 27.734375 21.675781 "/>
</g>
</svg>
