<?xml version="1.0" encoding="UTF-8"?>
<svg xmlns="http://www.w3.org/2000/svg" xmlns:xlink="http://www.w3.org/1999/xlink" width="256px" height="256px" viewBox="0 0 256 256" version="1.1">
<g id="surface1">
<path style=" stroke:none;fill-rule:nonzero;fill:rgb(97.647059%,28.235294%,40.392157%);fill-opacity:1;" d="M 256 128 C 256 198.691406 198.691406 256 128 256 C 57.308594 256 0 198.691406 0 128 C 0 57.308594 57.308594 0 128 0 C 198.691406 0 256 57.308594 256 128 Z M 256 128 "/>
<path style="fill-rule:nonzero;fill:rgb(94.117647%,94.117647%,94.117647%);fill-opacity:1;stroke-width:0.5;stroke-linecap:butt;stroke-linejoin:miter;stroke:rgb(100%,100%,100%);stroke-opacity:1;stroke-miterlimit:10;" d="M 50.657043 18.722534 C 55.480042 27.094116 52.614441 37.790222 44.251099 42.627869 L 28.22937 51.878357 L 28.220215 51.860962 C 28.077393 51.954346 27.943726 52.043152 27.796326 52.128296 C 24.68811 53.921814 20.712891 52.857056 18.918457 49.747925 C 17.124023 46.639709 18.188782 42.66449 21.296997 40.870056 C 21.444397 40.784912 21.587219 40.713501 21.740112 40.636597 L 21.730042 40.620117 L 23.462219 39.619446 C 24.419861 39.068298 24.74762 37.844238 24.195557 36.886597 C 23.642578 35.929871 22.418518 35.602112 21.461792 36.156006 L 17.564392 38.405457 C 13.498535 40.749207 8.302917 39.357605 5.953674 35.294495 L 5.453796 34.428406 C 3.110046 30.362549 4.501648 25.166016 8.564758 22.816772 L 26.750793 12.317505 C 35.12146 7.488098 45.822144 10.35553 50.657043 18.722534 Z M 50.657043 18.722534 " transform="matrix(4.266667,0,0,4.266667,0,0)"/>
<path style=" stroke:none;fill-rule:nonzero;fill:rgb(94.901961%,33.72549%,18.431373%);fill-opacity:1;" d="M 82.882812 105.085938 C 88.773438 115.289062 85.277344 128.335938 75.074219 134.226562 C 64.871094 140.117188 51.824219 136.621094 45.933594 126.417969 C 40.042969 116.214844 43.539062 103.167969 53.742188 97.277344 C 63.945312 91.386719 76.992188 94.882812 82.882812 105.085938 Z M 82.882812 105.085938 "/>
<path style=" stroke:none;fill-rule:nonzero;fill:rgb(94.901961%,33.72549%,18.431373%);fill-opacity:1;" d="M 92.980469 114.035156 C 95.335938 118.117188 93.9375 123.335938 89.855469 125.695312 C 85.773438 128.050781 80.554688 126.652344 78.199219 122.570312 C 75.84375 118.488281 77.242188 113.269531 81.320312 110.914062 C 85.402344 108.558594 90.621094 109.957031 92.980469 114.035156 Z M 92.980469 114.035156 "/>
<path style=" stroke:none;fill-rule:nonzero;fill:rgb(94.901961%,33.72549%,18.431373%);fill-opacity:1;" d="M 63.496094 148.304688 C 65.261719 151.363281 64.214844 155.277344 61.152344 157.046875 C 58.089844 158.8125 54.175781 157.765625 52.410156 154.703125 C 50.644531 151.640625 51.691406 147.726562 54.753906 145.960938 C 57.8125 144.191406 61.726562 145.242188 63.496094 148.304688 Z M 63.496094 148.304688 "/>
<path style=" stroke:none;fill-rule:nonzero;fill:rgb(94.901961%,33.72549%,18.431373%);fill-opacity:1;" d="M 99.949219 134.644531 C 101.128906 136.6875 100.429688 139.296875 98.390625 140.472656 C 96.347656 141.652344 93.738281 140.953125 92.558594 138.910156 C 91.382812 136.871094 92.082031 134.261719 94.121094 133.082031 C 96.164062 131.90625 98.773438 132.605469 99.949219 134.644531 Z M 99.949219 134.644531 "/>
<path style=" stroke:none;fill-rule:nonzero;fill:rgb(99.215686%,82.745098%,1.176471%);fill-opacity:1;" d="M 136.746094 78.914062 C 142.640625 89.117188 139.144531 102.164062 128.9375 108.054688 C 118.734375 113.945312 105.6875 110.449219 99.796875 100.246094 C 93.90625 90.042969 97.402344 76.996094 107.605469 71.105469 C 117.808594 65.214844 130.855469 68.710938 136.746094 78.914062 Z M 136.746094 78.914062 "/>
<path style=" stroke:none;fill-rule:nonzero;fill:rgb(99.215686%,82.745098%,1.176471%);fill-opacity:1;" d="M 140.441406 76.78125 C 142.800781 80.863281 141.402344 86.082031 137.320312 88.4375 C 133.238281 90.792969 128.019531 89.394531 125.664062 85.3125 C 123.304688 81.230469 124.703125 76.011719 128.785156 73.65625 C 132.867188 71.300781 138.085938 72.699219 140.441406 76.78125 Z M 140.441406 76.78125 "/>
<path style=" stroke:none;fill-rule:nonzero;fill:rgb(9.411765%,56.862745%,100%);fill-opacity:1;" d="M 198.648438 75.199219 C 205.128906 86.421875 201.285156 100.773438 190.0625 107.253906 C 178.835938 113.734375 164.484375 109.886719 158.003906 98.664062 C 151.523438 87.441406 155.371094 73.089844 166.59375 66.609375 C 177.816406 60.128906 192.167969 63.972656 198.648438 75.199219 Z M 198.648438 75.199219 "/>
<path style=" stroke:none;fill-rule:nonzero;fill:rgb(9.411765%,56.862745%,100%);fill-opacity:1;" d="M 174.917969 93.828125 C 179.042969 100.96875 176.59375 110.101562 169.453125 114.226562 C 162.308594 118.347656 153.175781 115.902344 149.050781 108.757812 C 144.929688 101.617188 147.375 92.484375 154.519531 88.359375 C 161.660156 84.238281 170.792969 86.683594 174.917969 93.828125 Z M 174.917969 93.828125 "/>
<path style=" stroke:none;fill-rule:nonzero;fill:rgb(9.411765%,56.862745%,100%);fill-opacity:1;" d="M 206.6875 97.652344 C 210.222656 103.777344 208.125 111.605469 202.003906 115.140625 C 195.882812 118.671875 188.050781 116.574219 184.519531 110.453125 C 180.984375 104.332031 183.082031 96.503906 189.203125 92.96875 C 195.324219 89.433594 203.152344 91.53125 206.6875 97.652344 Z M 206.6875 97.652344 "/>
<path style=" stroke:none;fill-rule:nonzero;fill:rgb(41.960784%,43.529412%,87.058824%);fill-opacity:1;" d="M 175.148438 145.425781 C 181.039062 155.628906 177.542969 168.675781 167.339844 174.566406 C 157.136719 180.457031 144.089844 176.960938 138.199219 166.757812 C 132.304688 156.554688 135.800781 143.507812 146.007812 137.617188 C 156.210938 131.722656 169.257812 135.21875 175.148438 145.425781 Z M 175.148438 145.425781 "/>
<path style=" stroke:none;fill-rule:nonzero;fill:rgb(41.960784%,43.529412%,87.058824%);fill-opacity:1;" d="M 139.1875 151.40625 C 141.542969 155.488281 140.144531 160.707031 136.0625 163.0625 C 131.984375 165.417969 126.765625 164.019531 124.40625 159.9375 C 122.050781 155.859375 123.449219 150.640625 127.53125 148.28125 C 131.613281 145.925781 136.832031 147.324219 139.1875 151.40625 Z M 139.1875 151.40625 "/>
<path style=" stroke:none;fill-rule:nonzero;fill:rgb(41.960784%,43.529412%,87.058824%);fill-opacity:1;" d="M 136.976562 130.511719 C 138.746094 133.574219 137.695312 137.488281 134.636719 139.253906 C 131.574219 141.019531 127.660156 139.972656 125.890625 136.910156 C 124.125 133.851562 125.175781 129.9375 128.234375 128.167969 C 131.296875 126.402344 135.210938 127.449219 136.976562 130.511719 Z M 136.976562 130.511719 "/>
<path style=" stroke:none;fill-rule:nonzero;fill:rgb(41.960784%,43.529412%,87.058824%);fill-opacity:1;" d="M 178.996094 177.6875 C 180.175781 179.730469 179.476562 182.339844 177.433594 183.519531 C 175.394531 184.695312 172.785156 183.996094 171.605469 181.957031 C 170.425781 179.914062 171.125 177.304688 173.167969 176.128906 C 175.207031 174.949219 177.816406 175.648438 178.996094 177.6875 Z M 178.996094 177.6875 "/>
<path style=" stroke:none;fill-rule:nonzero;fill:rgb(79.607843%,79.607843%,79.607843%);fill-opacity:1;" d="M 121.359375 188.796875 C 126.664062 197.976562 123.515625 209.722656 114.332031 215.023438 C 105.148438 220.324219 93.40625 217.179688 88.105469 207.996094 C 82.804688 198.8125 85.949219 187.070312 95.132812 181.765625 C 104.316406 176.464844 116.058594 179.613281 121.359375 188.796875 Z M 121.359375 188.796875 "/>
<path style=" stroke:none;fill-rule:nonzero;fill:rgb(9.411765%,56.862745%,100%);fill-opacity:1;" d="M 117.664062 190.929688 C 121.789062 198.070312 119.34375 207.203125 112.199219 211.328125 C 105.058594 215.453125 95.925781 213.003906 91.800781 205.863281 C 87.675781 198.71875 90.125 189.585938 97.265625 185.460938 C 104.410156 181.339844 113.542969 183.785156 117.664062 190.929688 Z M 117.664062 190.929688 "/>
<path style=" stroke:none;fill-rule:nonzero;fill:rgb(99.215686%,82.745098%,1.176471%);fill-opacity:1;" d="M 164.25 75.351562 C 166.019531 78.410156 164.96875 82.328125 161.910156 84.09375 C 158.847656 85.859375 154.933594 84.8125 153.167969 81.75 C 151.398438 78.691406 152.449219 74.777344 155.507812 73.007812 C 158.570312 71.242188 162.484375 72.289062 164.25 75.351562 Z M 164.25 75.351562 "/>
<path style=" stroke:none;fill-rule:nonzero;fill:rgb(68.235294%,68.235294%,68.235294%);fill-opacity:1;" d="M 222.25 149.929688 C 222.261719 155.296875 221.132812 160.605469 218.941406 165.503906 L 197.179688 165.503906 C 196.6875 165.335938 196.214844 165.121094 195.765625 164.863281 C 190.878906 162.597656 187.75 157.707031 187.734375 152.320312 C 187.726562 150.546875 188.074219 148.792969 188.753906 147.15625 C 189.40625 145.546875 190.347656 144.074219 191.53125 142.804688 C 192.054688 142.246094 192.625 141.734375 193.234375 141.269531 C 194.0625 140.585938 195.035156 140.117188 195.914062 139.476562 C 196.792969 138.882812 197.609375 138.195312 198.347656 137.429688 C 198.394531 137.386719 198.445312 137.300781 198.492188 137.257812 C 199.738281 136.03125 200.789062 134.621094 201.609375 133.078125 C 202.449219 131.539062 203.054688 129.886719 203.410156 128.171875 C 203.683594 126.925781 203.8125 125.648438 203.800781 124.375 C 203.804688 121.15625 202.964844 117.992188 201.363281 115.199219 C 214.136719 122.105469 222.136719 135.414062 222.25 149.929688 Z M 222.25 149.929688 "/>
<path style=" stroke:none;fill-rule:nonzero;fill:rgb(79.607843%,79.607843%,79.607843%);fill-opacity:1;" d="M 216.945312 150.828125 C 216.9375 155.691406 215.824219 160.492188 213.683594 164.863281 L 195.765625 164.863281 C 190.878906 162.597656 187.75 157.707031 187.734375 152.320312 C 187.726562 150.546875 188.074219 148.792969 188.753906 147.15625 C 189.40625 145.546875 190.347656 144.074219 191.53125 142.804688 C 192.054688 142.246094 192.625 141.734375 193.234375 141.269531 C 194.0625 140.585938 195.035156 140.117188 195.914062 139.476562 C 196.792969 138.882812 197.609375 138.195312 198.347656 137.429688 C 198.394531 137.386719 198.445312 137.300781 198.492188 137.257812 C 199.738281 136.03125 200.789062 134.621094 201.609375 133.078125 C 202.449219 131.539062 203.054688 129.886719 203.410156 128.171875 C 203.683594 126.925781 203.8125 125.648438 203.800781 124.375 C 211.96875 130.738281 216.804688 140.472656 216.945312 150.828125 Z M 216.945312 150.828125 "/>
<path style=" stroke:none;fill-rule:nonzero;fill:rgb(30.980392%,33.333333%,39.215686%);fill-opacity:1;" d="M 192 170.933594 L 221.867188 170.933594 L 221.867188 241.066406 C 221.867188 249.3125 215.179688 256 206.933594 256 C 198.6875 256 192 249.3125 192 241.066406 Z M 192 170.933594 "/>
<path style=" stroke:none;fill-rule:nonzero;fill:rgb(100%,100%,100%);fill-opacity:1;" d="M 221.867188 173.398438 L 192 173.398438 C 189.644531 173.398438 187.734375 171.488281 187.734375 169.132812 C 187.734375 166.777344 189.644531 164.867188 192 164.867188 L 221.867188 164.867188 C 224.222656 164.867188 226.132812 166.777344 226.132812 169.132812 C 226.132812 171.488281 224.222656 173.398438 221.867188 173.398438 Z M 221.867188 173.398438 "/>
</g>
</svg>
